<svg width="24" height="24" viewBox="0 0 24 24" fill="none" xmlns="http://www.w3.org/2000/svg">
<path d="M12.3112 13.7207C12.3112 12.7606 12.6399 12.4863 13.6145 11.7631C14.5186 11.0898 15 10.5162 15 9.4813C15 7.9601 13.8845 7 12.1468 7C11.1252 7 10.4207 7.27431 9.91585 7.72319C9.49315 8.09726 9.19961 8.59601 9.03523 9.14464C9.01174 9.21945 9 9.29426 9 9.35661C9 9.63092 9.21135 9.78055 9.43444 9.84289C9.50489 9.85536 9.57534 9.86783 9.64579 9.86783C9.85714 9.86783 10.045 9.75561 10.1389 9.45636C10.409 8.60848 11.0078 8.02244 12.0881 8.02244C13.2035 8.02244 13.8728 8.60848 13.8728 9.53117C13.8728 10.1671 13.6145 10.4913 12.7456 11.1397C12.0528 11.6384 11.9237 11.7631 11.6888 12.0873C11.3718 12.5112 11.2544 12.9227 11.2544 13.7082V14.0574C11.2544 14.3815 11.4892 14.5436 11.7945 14.5436C12.0881 14.5436 12.3112 14.3815 12.3112 14.0574V13.7207ZM11.771 15.2793C11.3131 15.2793 10.9609 15.616 10.9609 16.1397C10.9609 16.6633 11.3131 17 11.771 17C12.2172 17 12.5812 16.6633 12.5812 16.1397C12.5812 15.616 12.2172 15.2793 11.771 15.2793Z" fill="#49CBFF"/>
<circle cx="12" cy="12" r="11.5" stroke="#49CBFF"/>
</svg>
